0
SECTION
2
HEADER
9
$INSUNITS
70
4
9
$ACADVER
1
AC1014
9
$HANDSEED
5
FFFF
0
ENDSEC
0
SECTION
2
TABLES
0
TABLE
2
VPORT
5
8
100
AcDbSymbolTable
0
ENDTAB
0
TABLE
2
LTYPE
5
5
100
AcDbSymbolTable
0
LTYPE
5
14
100
AcDbSymbolTableRecord
100
AcDbLinetypeTableRecord
2
BYBLOCK
70
0
0
LTYPE
5
15
100
AcDbSymbolTableRecord
100
AcDbLinetypeTableRecord
2
BYLAYER
70
0
0
ENDTAB
0
TABLE
2
LAYER
5
2
100
AcDbSymbolTable
70
2
0
LAYER
5
50
100
AcDbSymbolTableRecord
100
AcDbLayerTableRecord
2
0
70
0
6
CONTINUOUS
0
ENDTAB
0
TABLE
2
STYLE
5
3
100
AcDbSymbolTable
70
1
0
STYLE
5
11
100
AcDbSymbolTableRecord
100
AcDbTextStyleTableRecord
2
STANDARD
70
0
0
ENDTAB
0
TABLE
2
VIEW
5
6
100
AcDbSymbolTable
70
0
0
ENDTAB
0
TABLE
2
UCS
5
7
100
AcDbSymbolTable
70
0
0
ENDTAB
0
TABLE
2
APPID
5
9
100
AcDbSymbolTable
70
2
0
APPID
5
12
100
AcDbSymbolTableRecord
100
AcDbRegAppTableRecord
2
ACAD
70
0
0
ENDTAB
0
TABLE
2
DIMSTYLE
5
A
100
AcDbSymbolTable
70
1
0
ENDTAB
0
TABLE
2
BLOCK_RECORD
5
1
100
AcDbSymbolTable
70
1
0
BLOCK_RECORD
5
1F
100
AcDbSymbolTableRecord
100
AcDbBlockTableRecord
2
*MODEL_SPACE
0
BLOCK_RECORD
5
1B
100
AcDbSymbolTableRecord
100
AcDbBlockTableRecord
2
*PAPER_SPACE
0
ENDTAB
0
ENDSEC
0
SECTION
2
BLOCKS
0
BLOCK
5
20
100
AcDbEntity
100
AcDbBlockBegin
2
*MODEL_SPACE
0
ENDBLK
5
21
100
AcDbEntity
100
AcDbBlockEnd
0
BLOCK
5
1C
100
AcDbEntity
100
AcDbBlockBegin
2
*PAPER_SPACE
0
ENDBLK
5
1D
100
AcDbEntity
100
AcDbBlockEnd
0
ENDSEC
0
SECTION
2
ENTITIES
0
CIRCLE
5
100
100
AcDbEntity
8
0
100
AcDbCircle
10
30.03657451040695
20
-26.537397773722002
30
0
40
1.25
210
0
220
0
230
1
0
CIRCLE
5
101
100
AcDbEntity
8
0
100
AcDbCircle
10
146.71807451040672
20
-26.537397773722027
30
0
40
1.250000000000008
210
0
220
0
230
1
0
CIRCLE
5
102
100
AcDbEntity
8
0
100
AcDbCircle
10
155.68525
20
21.143250000000002
30
0
40
1.25
210
0
220
0
230
1
0
CIRCLE
5
103
100
AcDbEntity
8
0
100
AcDbCircle
10
149.73150000000001
20
78.29325
30
0
40
1.25
210
0
220
0
230
1
0
CIRCLE
5
104
100
AcDbEntity
8
0
100
AcDbCircle
10
74.722749999999976
20
49.718250000000019
30
0
40
1.2500000000000011
210
0
220
0
230
1
0
CIRCLE
5
105
100
AcDbEntity
8
0
100
AcDbCircle
10
21.144649999999999
20
21.143250000000002
30
0
40
1.2500000000000004
210
0
220
0
230
1
0
CIRCLE
5
106
100
AcDbEntity
8
0
100
AcDbCircle
10
21.144649999999999
20
78.29325
30
0
40
1.25
210
0
220
0
230
1
0
CIRCLE
5
107
100
AcDbEntity
8
0
100
AcDbCircle
10
163.3865745104066
20
-83.687397773721926
30
0
40
1.25
210
0
220
0
230
1
0
CIRCLE
5
108
100
AcDbEntity
8
0
100
AcDbCircle
10
41.943074510406895
20
-83.687397773721898
30
0
40
1.25
210
0
220
0
230
1
0
CIRCLE
5
109
100
AcDbEntity
8
0
100
AcDbCircle
10
82.424574510406813
20
-55.112397773721938
30
0
40
1.2499999999999929
210
0
220
0
230
1
0
LWPOLYLINE
5
110
100
AcDbEntity
8
0
100
AcDbPolyline
90
60
70
1
43
0.0
10
182.41032904916642
20
-6.9877476891072323
10
12.486574510406975
20
-6.9872100521906084
10
12.486574510406964
20
-24.537397773722009
42
-0.41421356237309503
10
8.9865745104069816
20
-28.037397773721992
10
3.4615745104069973
20
-28.037397773721992
42
0.41421356237310281
10
2.9615745104070044
20
-28.537397773721992
10
2.9615745104069688
20
-43.58739777372196
42
0.41421356237311552
10
3.4615745104069968
20
-44.087397773721939
10
4.2240745104069788
20
-44.08739777372196
42
-0.41421356237309503
10
7.7240745104069717
20
-47.587397773721953
10
7.7240745104069717
20
-62.637397773721929
42
0.4142135623730937
10
8.2240745104069628
20
-63.137397773721915
10
13.74957451040693
20
-63.137397773721915
42
-0.41421356237309503
10
17.249574510406923
20
-66.637397773721915
10
17.249574510406926
20
-81.687397773721884
42
-0.41421356237309503
10
13.74957451040693
20
-85.187397773721884
10
12.986824510406905
20
-85.187397773721884
42
0.41421356237309503
10
12.486824510406912
20
-85.687397773721869
10
12.486824510406898
20
-103.23694117372185
10
182.41075045459283
20
-103.23694117372187
10
182.48256110025341
20
-103.23441993397023
10
182.51988195952123
20
-103.23016150507152
10
182.55483752503125
20
-103.22323504834232
10
182.58898306846064
20
-103.21363857814653
10
182.62781838298994
20
-103.19907612775549
10
182.66663866664206
20
-103.18136970429366
10
182.70159526785901
20
-103.16182161826099
10
182.73121538737203
20
-103.14219207111958
10
182.7602725221914
20
-103.1190786559104
10
182.78847190125964
20
-103.09305872102614
10
182.81498278649343
20
-103.06410858424813
10
182.84091319996134
20
-103.0312925876203
10
182.86359523603954
20
-102.99716081615756
10
182.88265152445589
20
-102.96339901270622
10
182.8986515264526
20
-102.92845993142301
10
182.91351827001176
20
-102.88860354346301
10
182.92272014931098
20
-102.85616370897542
10
182.92962339816665
20
-102.820648794696
10
182.9349179785392
20
-102.77484773303971
10
182.93807451040664
20
-102.70400613927265
10
182.93807451040664
20
-7.5206706619889205
10
182.93492557382692
20
-7.4500445129876205
10
182.92961826960084
20
-7.4041953014790272
10
182.92262831184564
20
-7.3681737191804988
10
182.91362785731721
20
-7.336420952855784
10
182.89878294155855
20
-7.2967175508903175
10
182.88231773065831
20
-7.2607220667530301
10
182.86351272502816
20
-7.2273614983234573
10
182.84130604750018
20
-7.1939749072814028
10
182.81533389007825
20
-7.1611386796836838
10
182.78838816584056
20
-7.1317271674732776
10
182.76041453598506
20
-7.1058941284241071
10
182.73076377028272
20
-7.0823422600572954
10
182.70154177958889
20
-7.0629129822753614
10
182.66715724306309
20
-7.0437523238780084
10
182.62736715798613
20
-7.0255665737266559
10
182.59561226763978
20
-7.0136638903383286
10
182.55493261747779
20
-7.0026375641102074
10
182.51253512589733
20
-6.9938255364483846
10
182.48173931921434
20
-6.9902948070197626
0
LWPOLYLINE
5
111
100
AcDbEntity
8
0
100
AcDbPolyline
90
60
70
1
43
0.0
10
176.80675000000002
20
19.143250000000009
42
-0.41421356237309581
10
180.30674999999999
20
22.643250000000009
10
181.06950000000001
20
22.643250000000013
42
0.41421356237309243
10
181.56950000000001
20
23.143250000000002
10
181.56950000000001
20
38.193250000000006
42
0.41421356237310542
10
181.06950000000001
20
38.69325000000002
10
175.54399999999998
20
38.693249999999999
42
-0.41421356237310175
10
172.04399999999995
20
42.19325000000002
10
172.04399999999995
20
57.24325000000001
42
0.41421356237309503
10
171.54399999999993
20
57.743250000000039
10
170.78149999999999
20
57.743250000000039
42
-0.41421356237310991
10
167.28150000000002
20
61.243250000000053
10
167.28149999999999
20
76.29325
42
-0.41421356237310025
10
170.78149999999997
20
79.793250000000029
10
176.3065
20
79.793250000000015
42
0.41421356237304302
10
176.8065
20
80.293250000000057
10
176.8065
20
97.843478853390465
10
2.1273309226204873
20
97.84403153638705
10
2.0557526930240315
20
97.840978868415704
10
2.0197319605155277
20
97.836815156720661
10
1.975862452311707
20
97.82777634396389
10
1.9361068094375233
20
97.81697061440579
10
1.9035644653868271
20
97.804809996181348
10
1.8678461830224617
20
97.788478331214122
10
1.8348567893122245
20
97.76988356190887
10
1.8001326309426566
20
97.746779747061879
10
1.7676362387699003
20
97.721180483092468
10
1.7411181288690996
20
97.696851731730007
10
1.7161717848140678
20
97.669650276541262
10
1.6909726031920314
20
97.637739211506812
10
1.6681340542770657
20
97.603330653395858
10
1.6493997994230258
20
97.570168383403214
10
1.6330893123555323
20
97.534383424591908
10
1.6205213351333456
20
97.500844194350194
10
1.6100231399782245
20
97.462321270254705
10
1.6011387693508068
20
97.418985611665065
10
1.5975773296504499
20
97.388071026792588
10
1.5950842191572372
20
97.317064142779387
10
1.5937070798728272
20
2.1250194152237967
10
1.5967982153062354
20
2.0551611182178049
10
1.6011334470029936
20
2.0174789184018951
10
1.6099299215997556
20
1.9746441530046952
10
1.6206270691748341
20
1.9354196397876422
10
1.6332204494270126
20
1.901732656039163
10
1.6490664015283709
20
1.8670060249672318
10
1.6680517535545214
20
1.8334435617578158
10
1.6913647371571816
20
1.7982888026720327
10
1.7165228506103871
20
1.7663981168093299
10
1.7410347724704605
20
1.7396581114273693
10
1.767778039338153
20
1.7151431228403757
10
1.7996770919376597
20
1.689978408986206
10
1.834811147696418
20
1.6666783581818501
10
1.868372143874792
20
1.6476947355469362
10
1.9031126560391651
20
1.6318424494270114
10
1.9427532588534362
20
1.6170233968103396
10
1.9760313866603296
20
1.6076447957958084
10
2.0124389781359975
20
1.6004932540647743
10
2.0497117302380903
20
1.5962053556849429
10
2.120927309880436
20
1.5937066000000002
10
176.80675000000002
20
1.5937066
0
ENDSEC
0
SECTION
2
OBJECTS
0
DICTIONARY
5
C
100
AcDbDictionary
3
ACAD_GROUP
350
D
3
ACAD_MLINESTYLE
350
17
0
DICTIONARY
5
D
100
AcDbDictionary
0
DICTIONARY
5
1A
330
C
100
AcDbDictionary
0
DICTIONARY
5
17
100
AcDbDictionary
0
ENDSEC
0
EOF
