0
SECTION
2
HEADER
9
$INSUNITS
70
4
9
$ACADVER
1
AC1014
9
$HANDSEED
5
FFFF
0
ENDSEC
0
SECTION
2
TABLES
0
TABLE
2
VPORT
5
8
100
AcDbSymbolTable
0
ENDTAB
0
TABLE
2
LTYPE
5
5
100
AcDbSymbolTable
0
LTYPE
5
14
100
AcDbSymbolTableRecord
100
AcDbLinetypeTableRecord
2
BYBLOCK
70
0
0
LTYPE
5
15
100
AcDbSymbolTableRecord
100
AcDbLinetypeTableRecord
2
BYLAYER
70
0
0
ENDTAB
0
TABLE
2
LAYER
5
2
100
AcDbSymbolTable
70
2
0
LAYER
5
50
100
AcDbSymbolTableRecord
100
AcDbLayerTableRecord
2
0
70
0
6
CONTINUOUS
0
ENDTAB
0
TABLE
2
STYLE
5
3
100
AcDbSymbolTable
70
1
0
STYLE
5
11
100
AcDbSymbolTableRecord
100
AcDbTextStyleTableRecord
2
STANDARD
70
0
0
ENDTAB
0
TABLE
2
VIEW
5
6
100
AcDbSymbolTable
70
0
0
ENDTAB
0
TABLE
2
UCS
5
7
100
AcDbSymbolTable
70
0
0
ENDTAB
0
TABLE
2
APPID
5
9
100
AcDbSymbolTable
70
2
0
APPID
5
12
100
AcDbSymbolTableRecord
100
AcDbRegAppTableRecord
2
ACAD
70
0
0
ENDTAB
0
TABLE
2
DIMSTYLE
5
A
100
AcDbSymbolTable
70
1
0
ENDTAB
0
TABLE
2
BLOCK_RECORD
5
1
100
AcDbSymbolTable
70
1
0
BLOCK_RECORD
5
1F
100
AcDbSymbolTableRecord
100
AcDbBlockTableRecord
2
*MODEL_SPACE
0
BLOCK_RECORD
5
1B
100
AcDbSymbolTableRecord
100
AcDbBlockTableRecord
2
*PAPER_SPACE
0
ENDTAB
0
ENDSEC
0
SECTION
2
BLOCKS
0
BLOCK
5
20
100
AcDbEntity
100
AcDbBlockBegin
2
*MODEL_SPACE
0
ENDBLK
5
21
100
AcDbEntity
100
AcDbBlockEnd
0
BLOCK
5
1C
100
AcDbEntity
100
AcDbBlockBegin
2
*PAPER_SPACE
0
ENDBLK
5
1D
100
AcDbEntity
100
AcDbBlockEnd
0
ENDSEC
0
SECTION
2
ENTITIES
0
LWPOLYLINE
5
100
100
AcDbEntity
8
0
100
AcDbPolyline
90
44
70
1
43
0.0
10
157.88707451040665
20
-11.481047773722057
10
157.88707451040665
20
-10.563147773722079
10
154.58707451040667
20
-10.563147773722079
10
154.58707451040667
20
-11.481047773722057
10
152.86207451040667
20
-11.481047773722057
10
152.86207451040667
20
-14.711047773722061
10
151.33607451040666
20
-14.711047773722061
10
151.33607451040666
20
-10.01204777372207
10
137.33707451040669
20
-10.012047773722053
10
137.33707451040669
20
-14.711047773722044
10
135.81107451040668
20
-14.711047773722044
10
135.81107451040668
20
-11.48104777372204
10
134.08707451040669
20
-11.48104777372204
10
134.08707451040669
20
-10.563147773722061
10
130.78707451040685
20
-10.563147773722061
10
130.78707451040685
20
-11.48104777372204
10
129.06207451040675
20
-11.48104777372204
10
129.06207451040675
20
-14.711047773722044
10
128.23607451040672
20
-14.711047773722044
10
128.23607451040672
20
-17.512547773722034
10
129.06207451040675
20
-17.512547773722034
10
129.06207451040675
20
-23.781347773722015
10
130.78707451040685
20
-23.781347773722015
10
130.78707451040685
20
-24.762447773721998
10
134.08707451040669
20
-24.762447773721998
10
134.08707451040669
20
-23.781347773722015
10
135.81107451040668
20
-23.781347773722015
10
135.81107451040668
20
-19.312347773722021
10
137.33707451040669
20
-19.312347773722021
10
137.33707451040669
20
-24.012747773722047
10
151.33607451040666
20
-24.012747773722065
10
151.33607451040666
20
-19.312347773722038
10
152.86207451040667
20
-19.312347773722038
10
152.86207451040667
20
-23.781347773722032
10
154.58707451040667
20
-23.781347773722032
10
154.58707451040667
20
-24.762447773722016
10
157.88707451040665
20
-24.762447773722016
10
157.88707451040665
20
-23.781347773722032
10
159.61107451040675
20
-23.781347773722032
10
159.61107451040675
20
-17.512547773722051
10
160.4370745104066
20
-17.512547773722051
10
160.4370745104066
20
-14.711047773722061
10
159.61107451040675
20
-14.711047773722061
10
159.61107451040675
20
-11.481047773722057
0
LWPOLYLINE
5
101
100
AcDbEntity
8
0
100
AcDbPolyline
90
60
70
1
43
0.0
10
0.24666900000000005
20
1.3270500000000005
10
0.191547
20
1.4744999999999999
10
0.15020600000000001
20
1.62609
10
0.11851100000000002
20
1.78043
10
0.10059700000000003
20
1.9361400000000006
10
0.093706600000000015
20
2.0918600000000076
10
0.095084600000000033
20
97.343400000000017
10
0.10059700000000003
20
97.500400000000013
10
0.11851100000000002
20
97.655900000000017
10
0.15020600000000001
20
97.810500000000005
10
0.191547
20
97.962199999999996
10
0.24666900000000005
20
98.109300000000005
10
0.31143700000000002
20
98.251400000000018
10
0.38860600000000001
20
98.388000000000005
10
0.47542400000000007
20
98.518800000000013
10
0.573264
20
98.642700000000033
10
0.6793720000000002
20
98.758399999999995
10
0.79512899999999986
20
98.864599999999996
10
0.9191520000000003
20
98.962300000000013
10
1.05006
20
99.049400000000034
10
1.18649
20
99.126300000000001
10
1.3284300000000002
20
99.191199999999995
10
1.4758800000000003
20
99.246300000000005
10
1.6274600000000006
20
99.287500000000023
10
1.7818000000000001
20
99.319300000000013
10
1.9375200000000004
20
99.337300000000027
10
2.0953618295854781
20
99.344031637544404
10
178.30649999999997
20
99.343474107414238
10
178.30649999999997
20
80.29325
42
-0.41421356237307422
10
176.3065
20
78.29325
10
170.78149999999997
20
78.293250000000029
42
0.41421356237310414
10
168.78150000000002
20
76.29325
10
168.78150000000002
20
61.243250000000003
42
0.41421356237310936
10
170.78149999999997
20
59.243250000000025
10
171.54399999999995
20
59.243250000000039
42
-0.41421356237308982
10
173.54399999999995
20
57.24325000000001
10
173.54399999999998
20
42.193250000000006
42
0.41421356237310414
10
175.54399999999998
20
40.193250000000013
10
181.06950000000006
20
40.19325000000002
42
-0.41421356237309243
10
183.06950000000001
20
38.193250000000006
10
183.06950000000001
20
23.143249999999998
42
-0.4142135623730937
10
181.06950000000001
20
21.143250000000013
10
180.30674999999999
20
21.143250000000009
42
0.41421356237309631
10
178.30674999999999
20
19.143250000000009
10
178.30674999999999
20
0.093706600000000861
10
2.0946199999999848
20
0.093706600000000015
10
1.9375200000000004
20
0.09921880000000001
10
1.7818000000000001
20
0.11713300000000001
10
1.6274600000000006
20
0.14745000000000005
10
1.4758800000000003
20
0.19016900000000006
10
1.3284300000000002
20
0.24529100000000001
10
1.18649
20
0.31005900000000003
10
1.05006
20
0.38723000000000007
10
0.9191520000000003
20
0.47404500000000016
10
0.79512899999999986
20
0.57188500000000009
10
0.6793720000000002
20
0.67799700000000007
10
0.573264
20
0.79374999999999984
10
0.47542400000000007
20
0.91777300000000006
10
0.38860600000000001
20
1.0486899999999999
10
0.31143700000000002
20
1.1851100000000001
0
LWPOLYLINE
5
102
100
AcDbEntity
8
0
100
AcDbPolyline
90
4
70
1
43
0.0
10
17.986074510406986
20
-29.062047773721986
10
17.986074510406951
20
-43.062747773721959
10
3.9870745104069627
20
-43.062747773721959
10
3.9870745104069982
20
-29.062047773721986
0
LWPOLYLINE
5
103
100
AcDbEntity
8
0
100
AcDbPolyline
90
4
70
1
43
0.0
10
47.481800000000007
20
94.818600000000004
10
61.481099999999998
20
94.818600000000004
10
61.481099999999998
20
80.81789999999998
10
47.481800000000007
20
80.81789999999998
0
LWPOLYLINE
5
104
100
AcDbEntity
8
0
100
AcDbPolyline
90
4
70
1
43
0.0
10
85.581800000000001
20
94.818600000000004
10
99.581100000000035
20
94.818600000000004
10
99.581100000000035
20
80.81789999999998
10
85.581800000000001
20
80.81789999999998
0
LWPOLYLINE
5
105
100
AcDbEntity
8
0
100
AcDbPolyline
90
4
70
1
43
0.0
10
128.15600000000001
20
61.767900000000004
10
114.15700000000001
20
61.767900000000004
10
114.15700000000001
20
75.768600000000006
10
128.15600000000001
20
75.768600000000006
0
LWPOLYLINE
5
106
100
AcDbEntity
8
0
100
AcDbPolyline
90
4
70
1
43
0.0
10
113.23607451040675
20
-29.062047773722011
10
113.23607451040672
20
-43.062747773721988
10
99.237074510406771
20
-43.062747773721988
10
99.237074510406813
20
-29.062047773722011
0
LWPOLYLINE
5
107
100
AcDbEntity
8
0
100
AcDbPolyline
90
4
70
1
43
0.0
10
132.28607451040671
20
-43.062747773721995
10
118.28707451040682
20
-43.062747773721988
10
118.28707451040685
20
-29.062047773722011
10
132.28607451040673
20
-29.062047773722021
0
LWPOLYLINE
5
108
100
AcDbEntity
8
0
100
AcDbPolyline
90
4
70
1
43
0.0
10
156.10007451040673
20
-29.062047773722021
10
156.10007451040673
20
-43.062747773721995
10
142.09907451040678
20
-43.062747773721995
10
142.09907451040681
20
-29.062047773722021
0
LWPOLYLINE
5
109
100
AcDbEntity
8
0
100
AcDbPolyline
90
4
70
1
43
0.0
10
56.086074510406903
20
-29.062047773722
10
56.086074510406867
20
-43.062747773721981
10
42.08707451040695
20
-43.062747773721966
10
42.087074510406985
20
-29.062047773721993
0
LWPOLYLINE
5
110
100
AcDbEntity
8
0
100
AcDbPolyline
90
4
70
1
43
0.0
10
123.68000000000002
20
94.818600000000004
10
137.68100000000001
20
94.818600000000004
10
137.68100000000001
20
80.81789999999998
10
123.68000000000002
20
80.81789999999998
0
LINE
5
111
100
AcDbEntity
8
0
100
AcDbLine
10
184.41307451040666
20
-7.1747477737220677
30
0
11
184.4310745104066
21
-7.3302477737220606
31
0
0
LWPOLYLINE
5
112
100
AcDbEntity
8
0
100
AcDbPolyline
90
4
70
1
43
0.0
10
66.531800000000004
20
80.81789999999998
10
66.531800000000004
20
94.818600000000004
10
80.531100000000023
20
94.818600000000004
10
80.531100000000023
20
80.81789999999998
0
LINE
5
113
100
AcDbEntity
8
0
100
AcDbLine
10
184.28507451040667
20
-6.7213477737220728
30
0
11
184.34007451040662
21
-6.8684477737220817
31
0
0
LWPOLYLINE
5
114
100
AcDbEntity
8
0
100
AcDbPolyline
90
44
70
1
43
0.0
10
172.97499999999999
20
11.118000000000004
10
172.97499999999999
20
13.918200000000001
10
172.15100000000004
20
13.918200000000001
10
172.15100000000004
20
17.148299999999999
10
170.42599999999999
20
17.148299999999999
10
170.42599999999999
20
18.068899999999999
10
167.12599999999995
20
18.068899999999999
10
167.12599999999995
20
17.148299999999999
10
165.40099999999995
20
17.148299999999999
10
165.40099999999995
20
13.918200000000001
10
163.87599999999995
20
13.918200000000001
10
163.87599999999995
20
18.6187
10
149.876
20
18.6187
10
149.876
20
13.918200000000001
10
148.351
20
13.918200000000001
10
148.351
20
17.148299999999999
10
146.626
20
17.148299999999999
10
146.626
20
18.068899999999999
10
143.32599999999999
20
18.068899999999999
10
143.32599999999999
20
17.148299999999999
10
141.59999999999999
20
17.148299999999999
10
141.59999999999999
20
13.918200000000001
10
140.77600000000001
20
13.918200000000001
10
140.77600000000001
20
11.118000000000004
10
141.59999999999999
20
11.118000000000004
10
141.59999999999999
20
4.8493199999999996
10
143.32599999999999
20
4.8493199999999996
10
143.32599999999999
20
3.8681399999999999
10
146.626
20
3.8681399999999999
10
146.626
20
4.8493199999999996
10
148.351
20
4.8493199999999996
10
148.351
20
9.31968
10
149.876
20
9.31968
10
149.876
20
4.6177900000000003
10
163.87599999999995
20
4.6177900000000003
10
163.87599999999995
20
9.31968
10
165.40099999999995
20
9.31968
10
165.40099999999995
20
4.8493199999999996
10
167.12599999999995
20
4.8493199999999996
10
167.12599999999995
20
3.8681399999999999
10
170.42599999999999
20
3.8681399999999999
10
170.42599999999999
20
4.8493199999999996
10
172.15100000000004
20
4.8493199999999987
10
172.15100000000004
20
11.118000000000004
0
LINE
5
115
100
AcDbEntity
8
0
100
AcDbLine
10
182.75107451040668
20
-5.5113477737220684
30
0
11
182.90407451040659
21
-5.5431477737220547
31
0
0
LINE
5
116
100
AcDbEntity
8
0
100
AcDbLine
10
184.34007451040662
20
-103.35614777372189
30
0
11
184.28507451040667
21
-103.50359777372189
31
0
0
LINE
5
117
100
AcDbEntity
8
0
100
AcDbLine
10
183.61407451040662
20
-5.8683477737220713
30
0
11
183.73707451040667
21
-5.9660477737220852
31
0
0
LINE
5
118
100
AcDbEntity
8
0
100
AcDbLine
10
184.43807451040664
20
-102.7374077737219
30
0
11
184.4310745104066
21
-102.89450777372188
31
0
0
LINE
5
119
100
AcDbEntity
8
0
100
AcDbLine
10
183.05607451040657
20
-5.5843477737220759
30
0
11
183.20307451040662
21
-5.6394477737220861
31
0
0
LINE
5
120
100
AcDbEntity
8
0
100
AcDbLine
10
184.38307451040657
20
-7.0201477737220763
30
0
11
184.41307451040666
21
-7.1747477737220677
31
0
0
LINE
5
121
100
AcDbEntity
8
0
100
AcDbLine
10
183.85207451040662
20
-6.0722477737220792
30
0
11
183.95807451040662
21
-6.1879477737220512
31
0
0
LWPOLYLINE
5
122
100
AcDbEntity
8
0
100
AcDbPolyline
90
44
70
1
43
0.0
10
32.562074510406944
20
-100.21285777372185
10
46.561074510406861
20
-100.21285777372186
10
46.561074510406861
20
-95.510967773721873
10
55.237074510406892
20
-95.510967773721873
10
55.237074510406892
20
-99.981327773721858
10
56.961074510406853
20
-99.981327773721858
10
56.961074510406853
20
-100.96250777372185
10
60.262074510406869
20
-100.96250777372185
10
60.262074510406869
20
-99.981327773721858
10
61.987074510406863
20
-99.981327773721858
10
61.987074510406863
20
-93.712647773721883
10
62.812074510406823
20
-93.712647773721883
10
62.812074510406823
20
-90.912447773721894
10
61.987074510406863
20
-90.912447773721894
10
61.987074510406863
20
-87.682347773721887
10
60.262074510406869
20
-87.682347773721887
10
60.262074510406869
20
-86.761747773721893
10
56.961074510406853
20
-86.761747773721893
10
56.961074510406853
20
-87.682347773721887
10
55.237074510406892
20
-87.682347773721887
10
55.237074510406892
20
-90.91244777372188
10
46.561074510406861
20
-90.91244777372188
10
46.561074510406861
20
-86.211947773721889
10
32.562074510406944
20
-86.211947773721889
10
32.562074510406944
20
-90.91244777372188
10
23.887074510406912
20
-90.91244777372188
10
23.887074510406912
20
-87.682347773721872
10
22.162074510406917
20
-87.682347773721872
10
22.162074510406917
20
-86.761747773721879
10
18.861074510406937
20
-86.761747773721879
10
18.861074510406937
20
-87.682347773721872
10
17.13707451040694
20
-87.682347773721872
10
17.13707451040694
20
-90.91244777372188
10
16.31207451040698
20
-90.91244777372188
10
16.31207451040698
20
-93.712647773721869
10
17.13707451040694
20
-93.712647773721869
10
17.13707451040694
20
-99.981327773721858
10
18.861074510406937
20
-99.981327773721858
10
18.861074510406937
20
-100.96250777372185
10
22.162074510406917
20
-100.96250777372185
10
22.162074510406917
20
-99.981327773721858
10
23.887074510406912
20
-99.981327773721858
10
23.887074510406912
20
-95.510967773721873
10
32.562074510406944
20
-95.510967773721873
0
LINE
5
123
100
AcDbEntity
8
0
100
AcDbLine
10
183.34507451040673
20
-104.52058877372188
30
0
11
183.20307451040662
21
-104.58535677372188
31
0
0
LINE
5
124
100
AcDbEntity
8
0
100
AcDbLine
10
183.85207451040662
20
-104.15265077372189
30
0
11
183.73707451040667
21
-104.25876277372188
31
0
0
LINE
5
125
100
AcDbEntity
8
0
100
AcDbLine
10
182.75107451040668
20
-104.71351477372188
30
0
11
182.59407451040659
21
-104.73142897372188
31
0
0
LINE
5
126
100
AcDbEntity
8
0
100
AcDbLine
10
184.22007451040662
20
-6.57924777372207
30
0
11
184.28507451040667
21
-6.7213477737220728
31
0
0
LINE
5
127
100
AcDbEntity
8
0
100
AcDbLine
10
183.20307451040662
20
-5.6394477737220861
30
0
11
183.34507451040673
21
-5.7043477737220805
31
0
0
LINE
5
128
100
AcDbEntity
8
0
100
AcDbLine
10
183.20307451040662
20
-104.58535677372188
30
0
11
183.05607451040657
21
-104.64047877372188
31
0
0
LINE
5
129
100
AcDbEntity
8
0
100
AcDbLine
10
184.41307451040666
20
-103.0502177737219
30
0
11
184.38307451040657
21
-103.20455777372189
31
0
0
LINE
5
130
100
AcDbEntity
8
0
100
AcDbLine
10
183.05607451040657
20
-104.64047877372188
30
0
11
182.90407451040659
21
-104.68319777372189
31
0
0
LINE
5
131
100
AcDbEntity
8
0
100
AcDbLine
10
182.90407451040659
20
-104.68319777372189
30
0
11
182.75107451040668
21
-104.71351477372188
31
0
0
LINE
5
132
100
AcDbEntity
8
0
100
AcDbLine
10
183.95807451040662
20
-104.0368977737219
30
0
11
183.85207451040662
21
-104.15265077372189
31
0
0
LINE
5
133
100
AcDbEntity
8
0
100
AcDbLine
10
184.14307451040662
20
-6.4426477737220722
30
0
11
184.22007451040662
21
-6.57924777372207
31
0
0
LINE
5
134
100
AcDbEntity
8
0
100
AcDbLine
10
184.4310745104066
20
-102.89450777372188
30
0
11
184.41307451040666
21
-103.0502177737219
31
0
0
LINE
5
135
100
AcDbEntity
8
0
100
AcDbLine
10
184.05607451040657
20
-6.311847773722068
30
0
11
184.14307451040662
21
-6.4426477737220722
31
0
0
LINE
5
136
100
AcDbEntity
8
0
100
AcDbLine
10
184.4310745104066
20
-7.3302477737220606
30
0
11
184.43807451040664
21
-7.4872477737220677
31
0
0
LINE
5
137
100
AcDbEntity
8
0
100
AcDbLine
10
184.34007451040662
20
-6.8684477737220817
30
0
11
184.38307451040657
21
-7.0201477737220763
31
0
0
LINE
5
138
100
AcDbEntity
8
0
100
AcDbLine
10
183.73707451040667
20
-5.9660477737220852
30
0
11
183.85207451040662
21
-6.0722477737220792
31
0
0
LINE
5
139
100
AcDbEntity
8
0
100
AcDbLine
10
184.22007451040662
20
-103.64553777372188
30
0
11
184.14307451040662
21
-103.7819577737219
31
0
0
LWPOLYLINE
5
140
100
AcDbEntity
8
0
100
AcDbPolyline
90
4
70
1
43
0.0
10
160.8610745104067
20
-86.211947773721931
10
160.8610745104067
20
-100.21285777372188
10
146.86207451040673
20
-100.21285777372188
10
146.86207451040673
20
-86.211947773721903
0
LWPOLYLINE
5
141
100
AcDbEntity
8
0
100
AcDbPolyline
90
44
70
1
43
0.0
10
81.662400000000005
20
23.8979
10
81.662400000000005
20
30.168000000000006
10
82.487899999999982
20
30.168000000000006
10
82.487899999999982
20
32.968200000000003
10
81.662400000000005
20
32.968200000000003
10
81.662400000000005
20
36.1982
10
79.937299999999979
20
36.1982
10
79.937299999999979
20
37.117500000000007
10
76.638199999999998
20
37.117500000000007
10
76.638199999999998
20
36.1982
10
74.9131
20
36.1982
10
74.9131
20
32.968200000000003
10
73.387299999999982
20
32.968200000000003
10
73.387299999999982
20
37.668599999999998
10
59.388000000000012
20
37.668599999999998
10
59.388000000000012
20
32.968200000000003
10
57.8626
20
32.968200000000003
10
57.8626
20
36.1982
10
56.137200000000007
20
36.1982
10
56.137200000000007
20
37.117500000000007
10
52.838000000000001
20
37.117500000000007
10
52.838000000000001
20
36.1982
10
51.112900000000003
20
36.1982
10
51.112900000000003
20
32.968200000000003
10
50.287399999999998
20
32.968200000000003
10
50.287399999999998
20
30.168000000000006
10
51.112900000000003
20
30.168000000000006
10
51.112900000000003
20
23.8979
10
52.838000000000001
20
23.8979
10
52.838000000000001
20
22.918099999999999
10
56.137200000000007
20
22.918099999999999
10
56.137200000000007
20
23.8979
10
57.8626
20
23.8979
10
57.8626
20
28.368300000000009
10
59.388000000000012
20
28.368300000000009
10
59.388000000000012
20
23.6678
10
73.387299999999982
20
23.6678
10
73.387299999999982
20
28.368300000000009
10
74.9131
20
28.368300000000009
10
74.9131
20
23.8979
10
76.638199999999998
20
23.8979
10
76.638199999999998
20
22.918099999999999
10
79.937299999999979
20
22.918099999999999
10
79.937299999999979
20
23.8979
0
LWPOLYLINE
5
142
100
AcDbEntity
8
0
100
AcDbPolyline
90
4
70
1
43
0.0
10
97.488000000000014
20
18.6187
10
111.48700000000004
20
18.6187
10
111.48700000000004
20
4.6177900000000003
10
97.488000000000014
20
4.6177899999999994
0
LWPOLYLINE
5
143
100
AcDbEntity
8
0
100
AcDbPolyline
90
4
70
1
43
0.0
10
127.81207451040672
20
-100.21285777372188
10
127.81207451040672
20
-86.211947773721903
10
141.81107451040668
20
-86.211947773721903
10
141.81107451040668
20
-100.21285777372188
0
LWPOLYLINE
5
144
100
AcDbEntity
8
0
100
AcDbPolyline
90
4
70
1
43
0.0
10
87.676199999999994
20
4.6177900000000003
10
73.6755
20
4.6177899999999994
10
73.6755
20
18.6187
10
87.676199999999994
20
18.6187
0
LWPOLYLINE
5
145
100
AcDbEntity
8
0
100
AcDbPolyline
90
4
70
1
43
0.0
10
4.6192000000000011
20
4.6177899999999994
10
4.6192000000000011
20
18.6187
10
18.620100000000001
20
18.6187
10
18.620100000000001
20
4.6177900000000003
0
LWPOLYLINE
5
146
100
AcDbEntity
8
0
100
AcDbPolyline
90
4
70
1
43
0.0
10
23.6692
20
4.6177899999999994
10
23.6692
20
18.6187
10
37.670000000000002
20
18.6187
10
37.670000000000002
20
4.6177900000000003
0
LWPOLYLINE
5
147
100
AcDbEntity
8
0
100
AcDbPolyline
90
4
70
1
43
0.0
10
63.862300000000012
20
18.6187
10
63.862300000000012
20
4.6177900000000003
10
49.863
20
4.6177899999999994
10
49.863
20
18.6187
0
LWPOLYLINE
5
148
100
AcDbEntity
8
0
100
AcDbPolyline
90
4
70
1
43
0.0
10
179.91107451040662
20
-100.21285777372188
10
165.91207451040668
20
-100.21285777372188
10
165.91207451040668
20
-86.211947773721931
10
179.91107451040662
20
-86.211947773721931
0
LWPOLYLINE
5
149
100
AcDbEntity
8
0
100
AcDbPolyline
90
4
70
1
43
0.0
10
23.6692
20
37.668599999999998
10
37.670000000000002
20
37.668599999999998
10
37.670000000000002
20
23.6678
10
23.6692
20
23.6678
0
LWPOLYLINE
5
150
100
AcDbEntity
8
0
100
AcDbPolyline
90
4
70
1
43
0.0
10
89.712074510406765
20
-100.21285777372186
10
89.712074510406765
20
-86.211947773721903
10
103.71107451040675
20
-86.211947773721903
10
103.71107451040675
20
-100.21285777372186
0
LWPOLYLINE
5
151
100
AcDbEntity
8
0
100
AcDbPolyline
90
4
70
1
43
0.0
10
132.91999999999999
20
18.6187
10
132.91999999999999
20
4.6177900000000003
10
118.919
20
4.6177899999999994
10
118.919
20
18.6187
0
LWPOLYLINE
5
152
100
AcDbEntity
8
0
100
AcDbPolyline
90
4
70
1
43
0.0
10
108.76207451040673
20
-100.21285777372188
10
108.76207451040673
20
-86.211947773721903
10
122.76107451040673
20
-86.211947773721903
10
122.76107451040673
20
-100.21285777372188
0
LWPOLYLINE
5
153
100
AcDbEntity
8
0
100
AcDbPolyline
90
4
70
1
43
0.0
10
109.39400000000001
20
37.668599999999998
10
123.39500000000001
20
37.668599999999998
10
123.39500000000001
20
23.6678
10
109.39400000000001
20
23.6678
0
LWPOLYLINE
5
154
100
AcDbEntity
8
0
100
AcDbPolyline
90
4
70
1
43
0.0
10
75.424074510406854
20
-81.162847773721893
10
75.424074510406854
20
-67.162047773721937
10
89.424074510406825
20
-67.162047773721952
10
89.424074510406825
20
-81.162847773721921
0
LWPOLYLINE
5
155
100
AcDbEntity
8
0
100
AcDbPolyline
90
4
70
1
43
0.0
10
180.54500000000002
20
37.668599999999998
10
180.54500000000002
20
23.6678
10
166.54400000000007
20
23.6678
10
166.54400000000007
20
37.668599999999998
0
LWPOLYLINE
5
156
100
AcDbEntity
8
0
100
AcDbPolyline
90
4
70
1
43
0.0
10
134.66707451040668
20
-81.162847773721936
10
120.66807451040671
20
-81.162847773721921
10
120.66807451040671
20
-67.162047773721952
10
134.66707451040668
20
-67.162047773721952
0
LWPOLYLINE
5
157
100
AcDbEntity
8
0
100
AcDbPolyline
90
4
70
1
43
0.0
10
18.27407451040699
20
-81.162847773721893
10
18.27407451040699
20
-67.162047773721923
10
32.275074510406938
20
-67.162047773721923
10
32.275074510406938
20
-81.162847773721893
0
LWPOLYLINE
5
158
100
AcDbEntity
8
0
100
AcDbPolyline
90
44
70
1
43
0.0
10
155.50607451040668
20
-49.582447773721981
10
155.50607451040668
20
-48.663147773721995
10
152.20607451040678
20
-48.663147773721995
10
152.20607451040678
20
-49.582447773721981
10
150.48107451040678
20
-49.582447773721981
10
150.48107451040678
20
-52.812547773721981
10
148.95607451040667
20
-52.812547773721981
10
148.95607451040667
20
-48.112047773721976
10
134.95607451040669
20
-48.112047773721976
10
134.95607451040669
20
-52.812547773721981
10
133.43107451040669
20
-52.812547773721981
10
133.43107451040669
20
-49.582447773721981
10
131.70607451040672
20
-49.582447773721981
10
131.70607451040672
20
-48.663147773721995
10
128.40507451040676
20
-48.663147773721995
10
128.40507451040676
20
-49.582447773721981
10
126.68007451040673
20
-49.582447773721981
10
126.68007451040673
20
-52.812547773721981
10
125.8560745104067
20
-52.812547773721981
10
125.8560745104067
20
-55.612547773721971
10
126.68007451040673
20
-55.612547773721971
10
126.68007451040673
20
-61.88134777372197
10
128.40507451040676
20
-61.88134777372197
10
128.40507451040676
20
-62.862447773721939
10
131.70607451040672
20
-62.862447773721939
10
131.70607451040672
20
-61.88134777372197
10
133.43107451040669
20
-61.88134777372197
10
133.43107451040669
20
-57.412347773721976
10
134.95607451040669
20
-57.412347773721976
10
134.95607451040669
20
-62.112747773721964
10
148.95607451040667
20
-62.112747773721964
10
148.95607451040667
20
-57.412347773721976
10
150.48107451040678
20
-57.412347773721976
10
150.48107451040678
20
-61.88134777372197
10
152.20607451040678
20
-61.88134777372197
10
152.20607451040678
20
-62.862447773721939
10
155.50607451040668
20
-62.862447773721939
10
155.50607451040668
20
-61.88134777372197
10
157.23107451040676
20
-61.88134777372197
10
157.23107451040676
20
-55.612547773721971
10
158.05507451040668
20
-55.612547773721971
10
158.05507451040668
20
-52.812547773721981
10
157.23107451040676
20
-52.812547773721981
10
157.23107451040676
20
-49.582447773721981
0
LWPOLYLINE
5
159
100
AcDbEntity
8
0
100
AcDbPolyline
90
4
70
1
43
0.0
10
23.6692
20
42.7179
10
23.6692
20
56.718600000000016
10
37.670000000000002
20
56.718600000000016
10
37.670000000000002
20
42.7179
0
LWPOLYLINE
5
160
100
AcDbEntity
8
0
100
AcDbPolyline
90
4
70
1
43
0.0
10
70.662074510406853
20
-86.211947773721889
10
84.661074510406777
20
-86.211947773721889
10
84.661074510406777
20
-100.21285777372186
10
70.662074510406853
20
-100.21285777372186
0
LWPOLYLINE
5
161
100
AcDbEntity
8
0
100
AcDbPolyline
90
4
70
1
43
0.0
10
37.324074510406895
20
-81.162847773721893
10
37.324074510406895
20
-67.162047773721923
10
51.325074510406914
20
-67.162047773721923
10
51.325074510406914
20
-81.162847773721893
0
LWPOLYLINE
5
162
100
AcDbEntity
8
0
100
AcDbPolyline
90
4
70
1
43
0.0
10
142.44499999999999
20
37.668599999999998
10
142.44499999999999
20
23.6678
10
128.44400000000002
20
23.6678
10
128.44400000000002
20
37.668599999999998
0
LWPOLYLINE
5
163
100
AcDbEntity
8
0
100
AcDbPolyline
90
4
70
1
43
0.0
10
146.86207451040673
20
-81.162847773721936
10
146.86207451040673
20
-67.162047773721952
10
160.8610745104067
20
-67.162047773721966
10
160.8610745104067
20
-81.162847773721936
0
LWPOLYLINE
5
164
100
AcDbEntity
8
0
100
AcDbPolyline
90
4
70
1
43
0.0
10
68.626199999999997
20
56.718600000000016
10
68.626199999999997
20
42.7179
10
54.625500000000002
20
42.7179
10
54.625500000000002
20
56.718600000000016
0
LWPOLYLINE
5
165
100
AcDbEntity
8
0
100
AcDbPolyline
90
4
70
1
43
0.0
10
70.375074510406819
20
-67.162047773721937
10
70.375074510406819
20
-81.162847773721893
10
56.374074510406835
20
-81.162847773721893
10
56.374074510406835
20
-67.162047773721923
0
LWPOLYLINE
5
166
100
AcDbEntity
8
0
100
AcDbPolyline
90
4
70
1
43
0.0
10
104.345
20
23.6678
10
90.344300000000004
20
23.6678
10
90.344300000000004
20
37.668599999999998
10
104.345
20
37.668599999999998
0
LWPOLYLINE
5
167
100
AcDbEntity
8
0
100
AcDbPolyline
90
4
70
1
43
0.0
10
18.620100000000001
20
23.6678
10
4.6192000000000011
20
23.6678
10
4.6192000000000011
20
37.668599999999998
10
18.620100000000001
20
37.668599999999998
0
LWPOLYLINE
5
168
100
AcDbEntity
8
0
100
AcDbPolyline
90
4
70
1
43
0.0
10
179.91107451040662
20
-67.162047773721966
10
179.91107451040662
20
-81.162847773721936
10
165.91207451040668
20
-81.162847773721936
10
165.91207451040668
20
-67.162047773721966
0
LWPOLYLINE
5
169
100
AcDbEntity
8
0
100
AcDbPolyline
90
4
70
1
43
0.0
10
80.819299999999998
20
56.718600000000016
10
94.819999999999993
20
56.718600000000016
10
94.819999999999993
20
42.7179
10
80.819299999999998
20
42.7179
0
LWPOLYLINE
5
170
100
AcDbEntity
8
0
100
AcDbPolyline
90
4
70
1
43
0.0
10
52.244300000000017
20
61.767900000000004
10
52.244300000000017
20
75.768600000000006
10
66.245000000000005
20
75.768600000000006
10
66.245000000000005
20
61.767900000000004
0
LWPOLYLINE
5
171
100
AcDbEntity
8
0
100
AcDbPolyline
90
4
70
1
43
0.0
10
113.869
20
42.7179
10
99.86930000000001
20
42.7179
10
99.86930000000001
20
56.718600000000016
10
113.869
20
56.718600000000016
0
LWPOLYLINE
5
172
100
AcDbEntity
8
0
100
AcDbPolyline
90
4
70
1
43
0.0
10
4.6192000000000011
20
56.718600000000016
10
18.620100000000001
20
56.718600000000016
10
18.620100000000001
20
42.7179
10
4.6192000000000011
20
42.7179
0
LWPOLYLINE
5
173
100
AcDbEntity
8
0
100
AcDbPolyline
90
4
70
1
43
0.0
10
108.47507451040677
20
-81.162847773721921
10
94.474074510406822
20
-81.162847773721921
10
94.474074510406822
20
-67.162047773721952
10
108.47507451040677
20
-67.162047773721952
0
LWPOLYLINE
5
174
100
AcDbEntity
8
0
100
AcDbPolyline
90
4
70
1
43
0.0
10
161.495
20
37.668599999999998
10
161.495
20
23.6678
10
147.49400000000003
20
23.6678
10
147.49400000000003
20
37.668599999999998
0
LWPOLYLINE
5
175
100
AcDbEntity
8
0
100
AcDbPolyline
90
4
70
1
43
0.0
10
118.00007451040671
20
-48.112047773721969
10
118.00007451040671
20
-62.112747773721956
10
103.99907451040676
20
-62.112747773721956
10
103.99907451040676
20
-48.112047773721969
0
LWPOLYLINE
5
176
100
AcDbEntity
8
0
100
AcDbPolyline
90
4
70
1
43
0.0
10
95.106800000000007
20
61.767900000000004
10
95.106800000000007
20
75.768600000000006
10
109.10600000000002
20
75.768600000000006
10
109.10600000000002
20
61.767900000000004
0
LWPOLYLINE
5
177
100
AcDbEntity
8
0
100
AcDbPolyline
90
4
70
1
43
0.0
10
22.750074510406932
20
-62.112747773721935
10
8.7490745104069489
20
-62.112747773721928
10
8.7490745104069489
20
-48.11204777372194
10
22.750074510406932
20
-48.112047773721955
0
LWPOLYLINE
5
178
100
AcDbEntity
8
0
100
AcDbPolyline
90
4
70
1
43
0.0
10
76.056799999999981
20
75.768600000000006
10
90.056100000000029
20
75.768600000000006
10
90.056100000000029
20
61.767900000000004
10
76.056799999999981
20
61.767900000000004
0
LWPOLYLINE
5
179
100
AcDbEntity
8
0
100
AcDbPolyline
90
4
70
1
43
0.0
10
151.97
20
56.718600000000016
10
151.97
20
42.7179
10
137.96899999999999
20
42.7179
10
137.96899999999999
20
56.718600000000016
0
LWPOLYLINE
5
180
100
AcDbEntity
8
0
100
AcDbPolyline
90
4
70
1
43
0.0
10
133.20699999999999
20
75.768600000000006
10
147.20600000000005
20
75.768600000000006
10
147.20600000000005
20
61.767900000000004
10
133.20699999999999
20
61.767900000000004
0
LWPOLYLINE
5
181
100
AcDbEntity
8
0
100
AcDbPolyline
90
4
70
1
43
0.0
10
27.799074510406925
20
-48.112047773721955
10
41.800074510406944
20
-48.112047773721955
10
41.800074510406944
20
-62.112747773721935
10
27.799074510406925
20
-62.112747773721935
0
LWPOLYLINE
5
182
100
AcDbEntity
8
0
100
AcDbPolyline
90
4
70
1
43
0.0
10
61.13707451040689
20
-29.062047773722
10
75.136074510406843
20
-29.062047773722
10
75.136074510406814
20
-43.062747773721981
10
61.137074510406855
20
-43.062747773721981
0
LWPOLYLINE
5
183
100
AcDbEntity
8
0
100
AcDbPolyline
90
4
70
1
43
0.0
10
65.899074510406805
20
-48.112047773721962
10
79.900074510406853
20
-48.112047773721962
10
79.900074510406853
20
-62.112747773721949
10
65.899074510406805
20
-62.112747773721949
0
LWPOLYLINE
5
184
100
AcDbEntity
8
0
100
AcDbPolyline
90
4
70
1
43
0.0
10
37.670000000000002
20
61.767900000000004
10
23.6692
20
61.767900000000004
10
23.6692
20
75.768600000000006
10
37.670000000000002
20
75.768600000000006
0
LWPOLYLINE
5
185
100
AcDbEntity
8
0
100
AcDbPolyline
90
4
70
1
43
0.0
10
84.949074510406774
20
-62.112747773721949
10
84.949074510406774
20
-48.112047773721962
10
98.950074510406722
20
-48.112047773721969
10
98.950074510406722
20
-62.112747773721956
0
LWPOLYLINE
5
186
100
AcDbEntity
8
0
100
AcDbPolyline
90
4
70
1
43
0.0
10
118.919
20
56.718600000000016
10
132.91999999999999
20
56.718600000000016
10
132.91999999999999
20
42.7179
10
118.919
20
42.7179
0
LWPOLYLINE
5
187
100
AcDbEntity
8
0
100
AcDbPolyline
90
4
70
1
43
0.0
10
179.91107451040662
20
-48.112047773721983
10
179.91107451040662
20
-62.112747773721971
10
165.91207451040668
20
-62.112747773721971
10
165.91207451040668
20
-48.112047773721983
0
LWPOLYLINE
5
188
100
AcDbEntity
8
0
100
AcDbPolyline
90
4
70
1
43
0.0
10
60.850074510406849
20
-48.112047773721962
10
60.850074510406849
20
-62.112747773721949
10
46.849074510406865
20
-62.112747773721935
10
46.849074510406865
20
-48.112047773721955
0
LWPOLYLINE
5
189
100
AcDbEntity
8
0
100
AcDbPolyline
90
4
70
1
43
0.0
10
18.620100000000001
20
61.767900000000004
10
4.6192000000000011
20
61.767900000000004
10
4.6192000000000011
20
75.768600000000006
10
18.620100000000001
20
75.768600000000006
0
LWPOLYLINE
5
190
100
AcDbEntity
8
0
100
AcDbPolyline
90
4
70
1
43
0.0
10
157.01900000000001
20
42.7179
10
157.01900000000001
20
56.718600000000016
10
171.02000000000001
20
56.718600000000016
10
171.02000000000001
20
42.7179
0
LWPOLYLINE
5
191
100
AcDbEntity
8
0
100
AcDbPolyline
90
4
70
1
43
0.0
10
108.76207451040678
20
-10.012047773722053
10
122.76107451040676
20
-10.012047773722053
10
122.76107451040676
20
-24.012747773722047
10
108.76207451040678
20
-24.012747773722047
0
LWPOLYLINE
5
192
100
AcDbEntity
8
0
100
AcDbPolyline
90
4
70
1
43
0.0
10
4.6192000000000011
20
80.81789999999998
10
4.6192000000000011
20
94.818600000000004
10
18.620100000000001
20
94.818600000000004
10
18.620100000000001
20
80.81789999999998
0
LWPOLYLINE
5
193
100
AcDbEntity
8
0
100
AcDbPolyline
90
4
70
1
43
0.0
10
23.6692
20
80.81789999999998
10
23.6692
20
94.818600000000004
10
37.670000000000002
20
94.818600000000004
10
37.670000000000002
20
80.81789999999998
0
LWPOLYLINE
5
194
100
AcDbEntity
8
0
100
AcDbPolyline
90
4
70
1
43
0.0
10
32.56207451040698
20
-24.01274777372203
10
32.56207451040698
20
-10.012047773722035
10
46.561074510406897
20
-10.012047773722035
10
46.561074510406897
20
-24.01274777372203
0
LWPOLYLINE
5
195
100
AcDbEntity
8
0
100
AcDbPolyline
90
4
70
1
43
0.0
10
161.78200000000001
20
80.81789999999998
10
161.78200000000001
20
94.818600000000004
10
175.78100000000003
20
94.818600000000004
10
175.78100000000003
20
80.81789999999998
0
LWPOLYLINE
5
196
100
AcDbEntity
8
0
100
AcDbPolyline
90
4
70
1
43
0.0
10
65.611074510406866
20
-24.01274777372203
10
51.612074510406956
20
-24.01274777372203
10
51.612074510406956
20
-10.012047773722035
10
65.611074510406866
20
-10.012047773722035
0
LWPOLYLINE
5
197
100
AcDbEntity
8
0
100
AcDbPolyline
90
4
70
1
43
0.0
10
142.732
20
80.81789999999998
10
142.732
20
94.818600000000004
10
156.73099999999999
20
94.818600000000004
10
156.73099999999999
20
80.81789999999998
0
LWPOLYLINE
5
198
100
AcDbEntity
8
0
100
AcDbPolyline
90
4
70
1
43
0.0
10
118.63100000000001
20
80.81789999999998
10
104.63200000000001
20
80.81789999999998
10
104.63200000000001
20
94.818600000000004
10
118.63100000000001
20
94.818600000000004
0
LWPOLYLINE
5
199
100
AcDbEntity
8
0
100
AcDbPolyline
90
4
70
1
43
0.0
10
84.66107451040682
20
-10.012047773722053
10
84.66107451040682
20
-24.012747773722047
10
70.662074510406896
20
-24.01274777372203
10
70.662074510406896
20
-10.012047773722035
0
CIRCLE
5
200
100
AcDbEntity
8
0
100
AcDbCircle
10
74.722749999999976
20
49.718250000000019
30
0
40
1.2500000000000011
210
0
220
0
230
1
0
ARC
5
201
100
AcDbEntity
8
0
100
AcDbCircle
10
8.2240745104069646
20
-62.637397773721929
30
0
40
1.9999999999999929
210
0
220
0
230
1
100
AcDbArc
50
180
51
270
0
LINE
5
202
100
AcDbEntity
8
0
100
AcDbLine
10
10.986574510406975
20
-5.4871736663078075
30
0
11
10.986574510406975
21
-24.537397773722009
31
0
0
LWPOLYLINE
5
203
100
AcDbEntity
8
0
100
AcDbPolyline
90
4
70
1
43
0.0
10
179.91107451040662
20
-10.01204777372207
10
179.91107451040662
20
-24.012747773722065
10
165.91207451040668
20
-24.012747773722065
10
165.91207451040668
20
-10.01204777372207
0
LWPOLYLINE
5
204
100
AcDbEntity
8
0
100
AcDbPolyline
90
4
70
1
43
0.0
10
13.512074510406968
20
-10.012047773722035
10
27.511074510406921
20
-10.012047773722035
10
27.511074510406921
20
-24.01274777372203
10
13.512074510406968
20
-24.01274777372203
0
LINE
5
205
100
AcDbEntity
8
0
100
AcDbLine
10
1.4615745104070044
20
-28.537397773721985
30
0
11
1.4615745104069688
21
-43.58739777372196
31
0
0
CIRCLE
5
206
100
AcDbEntity
8
0
100
AcDbCircle
10
163.3865745104066
20
-83.687397773721926
30
0
40
1.25
210
0
220
0
230
1
0
LINE
5
207
100
AcDbEntity
8
0
100
AcDbLine
10
182.43707451040655
20
-5.4877477737220737
30
0
11
182.59407451040659
21
-5.4933477737220571
31
0
0
CIRCLE
5
208
100
AcDbEntity
8
0
100
AcDbCircle
10
146.71807451040672
20
-26.537397773722027
30
0
40
1.250000000000008
210
0
220
0
230
1
0
LINE
5
209
100
AcDbEntity
8
0
100
AcDbLine
10
183.48307451040668
20
-104.44341777372189
30
0
11
183.34507451040673
21
-104.52058877372188
31
0
0
LWPOLYLINE
5
210
100
AcDbEntity
8
0
100
AcDbPolyline
90
4
70
1
43
0.0
10
89.712074510406808
20
-10.012047773722053
10
103.71107451040679
20
-10.012047773722053
10
103.71107451040679
20
-24.012747773722047
10
89.712074510406808
20
-24.012747773722047
0
LINE
5
211
100
AcDbEntity
8
0
100
AcDbLine
10
182.59407451040659
20
-104.73142897372188
30
0
11
182.43707451040655
21
-104.73694117372189
31
0
0
LINE
5
212
100
AcDbEntity
8
0
100
AcDbLine
10
183.61407451040662
20
-104.3566027737219
30
0
11
183.48307451040668
21
-104.44341777372189
31
0
0
LINE
5
213
100
AcDbEntity
8
0
100
AcDbLine
10
8.9865745104069816
20
-26.537397773721992
30
0
11
3.4615745104069973
21
-26.537397773721992
31
0
0
LINE
5
214
100
AcDbEntity
8
0
100
AcDbLine
10
13.74957451040693
20
-83.687397773721869
30
0
11
12.986824510406905
21
-83.687397773721869
31
0
0
LINE
5
215
100
AcDbEntity
8
0
100
AcDbLine
10
182.90407451040659
20
-5.5431477737220547
30
0
11
183.05607451040657
21
-5.5843477737220759
31
0
0
CIRCLE
5
216
100
AcDbEntity
8
0
100
AcDbCircle
10
41.943074510406895
20
-83.687397773721898
30
0
40
1.25
210
0
220
0
230
1
0
ARC
5
217
100
AcDbEntity
8
0
100
AcDbCircle
10
4.2240745104069788
20
-47.587397773721953
30
0
40
1.9999999999999929
210
0
220
0
230
1
100
AcDbArc
50
0
51
90
0
CIRCLE
5
218
100
AcDbEntity
8
0
100
AcDbCircle
10
149.73150000000001
20
78.29325
30
0
40
1.25
210
0
220
0
230
1
0
CIRCLE
5
219
100
AcDbEntity
8
0
100
AcDbCircle
10
21.144649999999999
20
78.29325
30
0
40
1.25
210
0
220
0
230
1
0
LINE
5
220
100
AcDbEntity
8
0
100
AcDbLine
10
182.43707451040655
20
-104.73694117372189
30
0
11
10.986824510406912
21
-104.73694117372185
31
0
0
ARC
5
221
100
AcDbEntity
8
0
100
AcDbCircle
10
13.74957451040693
20
-81.687397773721884
30
0
40
1.9999999999999929
210
0
220
0
230
1
100
AcDbArc
50
-90
51
0
0
LINE
5
222
100
AcDbEntity
8
0
100
AcDbLine
10
8.2240745104069646
20
-64.637397773721915
30
0
11
13.74957451040693
21
-64.637397773721915
31
0
0
CIRCLE
5
223
100
AcDbEntity
8
0
100
AcDbCircle
10
82.424574510406813
20
-55.112397773721938
30
0
40
1.2499999999999929
210
0
220
0
230
1
0
ARC
5
224
100
AcDbEntity
8
0
100
AcDbCircle
10
3.4615745104069617
20
-43.58739777372196
30
0
40
1.9999999999999929
210
0
220
0
230
1
100
AcDbArc
50
180
51
270
0
ARC
5
225
100
AcDbEntity
8
0
100
AcDbCircle
10
12.986824510406905
20
-85.687397773721869
30
0
40
1.9999999999999929
210
0
220
-0
230
1
100
AcDbArc
50
90
51
180
0
LINE
5
226
100
AcDbEntity
8
0
100
AcDbLine
10
3.4615745104069617
20
-45.587397773721946
30
0
11
4.2240745104069788
21
-45.58739777372196
31
0
0
LINE
5
227
100
AcDbEntity
8
0
100
AcDbLine
10
15.749574510406923
20
-66.637397773721915
30
0
11
15.749574510406923
21
-81.687397773721884
31
0
0
LINE
5
228
100
AcDbEntity
8
0
100
AcDbLine
10
6.2240745104069717
20
-47.587397773721953
30
0
11
6.2240745104069717
21
-62.637397773721929
31
0
0
LINE
5
229
100
AcDbEntity
8
0
100
AcDbLine
10
183.95807451040662
20
-6.1879477737220512
30
0
11
184.05607451040657
21
-6.311847773722068
31
0
0
ARC
5
230
100
AcDbEntity
8
0
100
AcDbCircle
10
8.9865745104069816
20
-24.537397773722009
30
0
40
1.999999999999984
210
0
220
0
230
1
100
AcDbArc
50
-90
51
0
0
ARC
5
231
100
AcDbEntity
8
0
100
AcDbCircle
10
3.4615745104069973
20
-28.537397773721978
30
0
40
1.999999999999984
210
0
220
-0
230
1
100
AcDbArc
50
90
51
180
0
LINE
5
232
100
AcDbEntity
8
0
100
AcDbLine
10
183.73707451040667
20
-104.25876277372188
30
0
11
183.61407451040662
21
-104.3566027737219
31
0
0
LINE
5
233
100
AcDbEntity
8
0
100
AcDbLine
10
182.59407451040659
20
-5.4933477737220571
30
0
11
182.75107451040668
21
-5.5113477737220684
31
0
0
LINE
5
234
100
AcDbEntity
8
0
100
AcDbLine
10
184.05607451040657
20
-103.91287477372188
30
0
11
183.95807451040662
21
-104.0368977737219
31
0
0
LINE
5
235
100
AcDbEntity
8
0
100
AcDbLine
10
183.34507451040673
20
-5.7043477737220805
30
0
11
183.48307451040668
21
-5.7812477737220469
31
0
0
CIRCLE
5
236
100
AcDbEntity
8
0
100
AcDbCircle
10
30.03657451040695
20
-26.537397773722002
30
0
40
1.25
210
0
220
0
230
1
0
LINE
5
237
100
AcDbEntity
8
0
100
AcDbLine
10
184.28507451040667
20
-103.50359777372189
30
0
11
184.22007451040662
21
-103.64553777372188
31
0
0
LINE
5
238
100
AcDbEntity
8
0
100
AcDbLine
10
10.986574510406975
20
-5.4872053061993675
30
0
11
182.43707451040655
21
-5.4877477737220737
31
0
0
CIRCLE
5
239
100
AcDbEntity
8
0
100
AcDbCircle
10
155.68525
20
21.143250000000002
30
0
40
1.25
210
0
220
0
230
1
0
LINE
5
240
100
AcDbEntity
8
0
100
AcDbLine
10
183.48307451040668
20
-5.7812477737220469
30
0
11
183.61407451040662
21
-5.8683477737220713
31
0
0
LINE
5
241
100
AcDbEntity
8
0
100
AcDbLine
10
184.38307451040657
20
-103.20455777372189
30
0
11
184.34007451040662
21
-103.35614777372189
31
0
0
LINE
5
242
100
AcDbEntity
8
0
100
AcDbLine
10
184.14307451040662
20
-103.7819577737219
30
0
11
184.05607451040657
21
-103.91287477372188
31
0
0
LWPOLYLINE
5
243
100
AcDbEntity
8
0
100
AcDbPolyline
90
4
70
1
43
0.0
10
37.036074510406891
20
-43.062747773721966
10
23.037074510406974
20
-43.062747773721966
10
23.03707451040701
20
-29.062047773721993
10
37.036074510406927
20
-29.062047773721993
0
LINE
5
244
100
AcDbEntity
8
0
100
AcDbLine
10
10.986824510406912
20
-85.687397773721869
30
0
11
10.986824510406912
21
-104.73694117372185
31
0
0
LINE
5
245
100
AcDbEntity
8
0
100
AcDbLine
10
184.43807451040664
20
-7.4872477737220677
30
0
11
184.43807451040664
21
-102.7374077737219
31
0
0
ARC
5
246
100
AcDbEntity
8
0
100
AcDbCircle
10
13.74957451040693
20
-66.637397773721915
30
0
40
1.9999999999999929
210
0
220
0
230
1
100
AcDbArc
50
0
51
90
0
LWPOLYLINE
5
247
100
AcDbEntity
8
0
100
AcDbPolyline
90
4
70
1
43
0.0
10
165.91207451040668
20
-29.062047773722028
10
179.91107451040662
20
-29.062047773722028
10
179.91107451040662
20
-43.062747773722009
10
165.91207451040668
20
-43.062747773722009
0
LWPOLYLINE
5
248
100
AcDbEntity
8
0
100
AcDbPolyline
90
4
70
1
43
0.0
10
80.187074510406859
20
-29.062047773722
10
94.186074510406783
20
-29.062047773722011
10
94.186074510406741
20
-43.062747773721988
10
80.187074510406831
20
-43.062747773721981
0
CIRCLE
5
249
100
AcDbEntity
8
0
100
AcDbCircle
10
21.144649999999999
20
21.143250000000002
30
0
40
1.2500000000000004
210
0
220
0
230
1
0
LWPOLYLINE
5
250
100
AcDbEntity
8
0
100
AcDbPolyline
90
4
70
1
43
0.0
10
166.25599999999997
20
75.768600000000006
10
166.25599999999997
20
61.767900000000004
10
152.25700000000001
20
61.767900000000004
10
152.25700000000001
20
75.768600000000006
0
ENDSEC
0
SECTION
2
OBJECTS
0
DICTIONARY
5
C
100
AcDbDictionary
3
ACAD_GROUP
350
D
3
ACAD_MLINESTYLE
350
17
0
DICTIONARY
5
D
100
AcDbDictionary
0
DICTIONARY
5
1A
330
C
100
AcDbDictionary
0
DICTIONARY
5
17
100
AcDbDictionary
0
ENDSEC
0
EOF
